<svg xmlns="http://www.w3.org/2000/svg" width="17" height="17" viewBox="0 0 17 17">
    <path fill-rule="evenodd" fill="#333" d="M0 17V1.193h4.426A1.474 1.474 0 0 1 5.862 0c.808 0 1.466.669 1.466 1.491 0 .822-.658 1.491-1.466 1.491a.295.295 0 0 1-.293-.298c0-.165.131-.298.293-.298a.888.888 0 0 0 .879-.895.888.888 0 0 0-.879-.895.878.878 0 0 0-.825.597h.532c.162 0 .293.133.293.298a.295.295 0 0 1-.293.298H.586v2.684h15.828V1.789h-3.84a1.476 1.476 0 0 1-1.436 1.193.295.295 0 0 1-.293-.298c0-.165.131-.298.293-.298a.888.888 0 0 0 .879-.895.888.888 0 0 0-.879-.895.295.295 0 0 1-.293-.298c0-.165.131-.298.293-.298.708 0 1.299.513 1.436 1.193H17V17H0zM16.414 5.07H.586v11.333h15.828V5.07zM2.345 9.245c.162 0 .293.134.293.299a.296.296 0 0 1-.293.298.296.296 0 0 1-.293-.298c0-.165.131-.299.293-.299zm0 2.088c.162 0 .293.134.293.298a.296.296 0 0 1-.293.299.296.296 0 0 1-.293-.299c0-.164.131-.298.293-.298zm0 2.386c.162 0 .293.134.293.299a.295.295 0 0 1-.293.297.295.295 0 0 1-.293-.297c0-.165.131-.299.293-.299zm2.052-4.474c.161 0 .293.134.293.299a.296.296 0 0 1-.293.298.297.297 0 0 1-.294-.298c0-.165.132-.299.294-.299zm0 2.088c.161 0 .293.134.293.298a.297.297 0 0 1-.293.299.297.297 0 0 1-.294-.299c0-.164.132-.298.294-.298zm0 2.386c.161 0 .293.134.293.299a.296.296 0 0 1-.293.297.296.296 0 0 1-.294-.297c0-.165.132-.299.294-.299zm2.051-6.86c.162 0 .293.134.293.299a.295.295 0 0 1-.293.298.295.295 0 0 1-.293-.298c0-.165.131-.299.293-.299zm0 2.386c.162 0 .293.134.293.299a.296.296 0 0 1-.293.298.296.296 0 0 1-.293-.298c0-.165.131-.299.293-.299zm0 2.088c.162 0 .293.134.293.298a.296.296 0 0 1-.293.299.296.296 0 0 1-.293-.299c0-.164.131-.298.293-.298zm0 2.386c.162 0 .293.134.293.299a.295.295 0 0 1-.293.297.295.295 0 0 1-.293-.297c0-.165.131-.299.293-.299zM8.5 6.859c.162 0 .293.134.293.299a.295.295 0 0 1-.293.298.295.295 0 0 1-.293-.298c0-.165.131-.299.293-.299zm0 2.386c.162 0 .293.134.293.299a.296.296 0 0 1-.293.298.296.296 0 0 1-.293-.298c0-.165.131-.299.293-.299zm0 2.088c.162 0 .293.134.293.298a.296.296 0 0 1-.293.299.296.296 0 0 1-.293-.299c0-.164.131-.298.293-.298zm0 2.386c.162 0 .293.134.293.299a.295.295 0 0 1-.293.297.295.295 0 0 1-.293-.297c0-.165.131-.299.293-.299zm2.052-6.86c.162 0 .293.134.293.299a.295.295 0 0 1-.293.298.295.295 0 0 1-.293-.298c0-.165.131-.299.293-.299zm0 2.386c.162 0 .293.134.293.299a.296.296 0 0 1-.293.298.296.296 0 0 1-.293-.298c0-.165.131-.299.293-.299zm0 2.088c.162 0 .293.134.293.298a.296.296 0 0 1-.293.299.296.296 0 0 1-.293-.299c0-.164.131-.298.293-.298zm0 2.386c.162 0 .293.134.293.299a.295.295 0 0 1-.293.297.295.295 0 0 1-.293-.297c0-.165.131-.299.293-.299zm2.051-6.86c.162 0 .294.134.294.299a.296.296 0 0 1-.294.298.295.295 0 0 1-.293-.298c0-.165.131-.299.293-.299zm0 2.386c.162 0 .294.134.294.299a.297.297 0 0 1-.294.298.296.296 0 0 1-.293-.298c0-.165.131-.299.293-.299zm0 2.088c.162 0 .294.134.294.298a.297.297 0 0 1-.294.299.296.296 0 0 1-.293-.299c0-.164.131-.298.293-.298zm2.052-4.474c.162 0 .293.134.293.299a.295.295 0 0 1-.293.298.295.295 0 0 1-.293-.298c0-.165.131-.299.293-.299zm0 2.386c.162 0 .293.134.293.299a.296.296 0 0 1-.293.298.296.296 0 0 1-.293-.298c0-.165.131-.299.293-.299zm0 2.088c.162 0 .293.134.293.298a.296.296 0 0 1-.293.299.296.296 0 0 1-.293-.299c0-.164.131-.298.293-.298zM9.379 2.982a.295.295 0 0 1-.293-.298c0-.165.131-.298.293-.298a.89.89 0 0 0 .88-.895.89.89 0 0 0-.88-.895.295.295 0 0 1-.293-.298c0-.165.131-.298.293-.298.808 0 1.466.669 1.466 1.491 0 .822-.658 1.491-1.466 1.491zm-1.758 0a.295.295 0 0 1-.293-.298c0-.165.131-.298.293-.298a.889.889 0 0 0 .879-.895.889.889 0 0 0-.879-.895.295.295 0 0 1-.293-.298c0-.165.131-.298.293-.298.808 0 1.465.669 1.465 1.491 0 .822-.657 1.491-1.465 1.491z"/>
</svg>