<?xml version="1.0" encoding="UTF-8"?><!DOCTYPE svg PUBLIC "-//W3C//DTD SVG 1.1//EN" "http://www.w3.org/Graphics/SVG/1.1/DTD/svg11.dtd"><svg xmlns="http://www.w3.org/2000/svg"><symbol id="icon-date" viewBox="0 0 17 17">
    <path fill-rule="evenodd" d="M0 17V1.193h4.426A1.474 1.474 0 0 1 5.862 0c.808 0 1.466.669 1.466 1.491 0 .822-.658 1.491-1.466 1.491a.295.295 0 0 1-.293-.298c0-.165.131-.298.293-.298a.888.888 0 0 0 .879-.895.888.888 0 0 0-.879-.895.878.878 0 0 0-.825.597h.532c.162 0 .293.133.293.298a.295.295 0 0 1-.293.298H.586v2.684h15.828V1.789h-3.84a1.476 1.476 0 0 1-1.436 1.193.295.295 0 0 1-.293-.298c0-.165.131-.298.293-.298a.888.888 0 0 0 .879-.895.888.888 0 0 0-.879-.895.295.295 0 0 1-.293-.298c0-.165.131-.298.293-.298.708 0 1.299.513 1.436 1.193H17V17H0zM16.414 5.07H.586v11.333h15.828V5.07zM2.345 9.245c.162 0 .293.134.293.299a.296.296 0 0 1-.293.298.296.296 0 0 1-.293-.298c0-.165.131-.299.293-.299zm0 2.088c.162 0 .293.134.293.298a.296.296 0 0 1-.293.299.296.296 0 0 1-.293-.299c0-.164.131-.298.293-.298zm0 2.386c.162 0 .293.134.293.299a.295.295 0 0 1-.293.297.295.295 0 0 1-.293-.297c0-.165.131-.299.293-.299zm2.052-4.474c.161 0 .293.134.293.299a.296.296 0 0 1-.293.298.297.297 0 0 1-.294-.298c0-.165.132-.299.294-.299zm0 2.088c.161 0 .293.134.293.298a.297.297 0 0 1-.293.299.297.297 0 0 1-.294-.299c0-.164.132-.298.294-.298zm0 2.386c.161 0 .293.134.293.299a.296.296 0 0 1-.293.297.296.296 0 0 1-.294-.297c0-.165.132-.299.294-.299zm2.051-6.86c.162 0 .293.134.293.299a.295.295 0 0 1-.293.298.295.295 0 0 1-.293-.298c0-.165.131-.299.293-.299zm0 2.386c.162 0 .293.134.293.299a.296.296 0 0 1-.293.298.296.296 0 0 1-.293-.298c0-.165.131-.299.293-.299zm0 2.088c.162 0 .293.134.293.298a.296.296 0 0 1-.293.299.296.296 0 0 1-.293-.299c0-.164.131-.298.293-.298zm0 2.386c.162 0 .293.134.293.299a.295.295 0 0 1-.293.297.295.295 0 0 1-.293-.297c0-.165.131-.299.293-.299zM8.5 6.859c.162 0 .293.134.293.299a.295.295 0 0 1-.293.298.295.295 0 0 1-.293-.298c0-.165.131-.299.293-.299zm0 2.386c.162 0 .293.134.293.299a.296.296 0 0 1-.293.298.296.296 0 0 1-.293-.298c0-.165.131-.299.293-.299zm0 2.088c.162 0 .293.134.293.298a.296.296 0 0 1-.293.299.296.296 0 0 1-.293-.299c0-.164.131-.298.293-.298zm0 2.386c.162 0 .293.134.293.299a.295.295 0 0 1-.293.297.295.295 0 0 1-.293-.297c0-.165.131-.299.293-.299zm2.052-6.86c.162 0 .293.134.293.299a.295.295 0 0 1-.293.298.295.295 0 0 1-.293-.298c0-.165.131-.299.293-.299zm0 2.386c.162 0 .293.134.293.299a.296.296 0 0 1-.293.298.296.296 0 0 1-.293-.298c0-.165.131-.299.293-.299zm0 2.088c.162 0 .293.134.293.298a.296.296 0 0 1-.293.299.296.296 0 0 1-.293-.299c0-.164.131-.298.293-.298zm0 2.386c.162 0 .293.134.293.299a.295.295 0 0 1-.293.297.295.295 0 0 1-.293-.297c0-.165.131-.299.293-.299zm2.051-6.86c.162 0 .294.134.294.299a.296.296 0 0 1-.294.298.295.295 0 0 1-.293-.298c0-.165.131-.299.293-.299zm0 2.386c.162 0 .294.134.294.299a.297.297 0 0 1-.294.298.296.296 0 0 1-.293-.298c0-.165.131-.299.293-.299zm0 2.088c.162 0 .294.134.294.298a.297.297 0 0 1-.294.299.296.296 0 0 1-.293-.299c0-.164.131-.298.293-.298zm2.052-4.474c.162 0 .293.134.293.299a.295.295 0 0 1-.293.298.295.295 0 0 1-.293-.298c0-.165.131-.299.293-.299zm0 2.386c.162 0 .293.134.293.299a.296.296 0 0 1-.293.298.296.296 0 0 1-.293-.298c0-.165.131-.299.293-.299zm0 2.088c.162 0 .293.134.293.298a.296.296 0 0 1-.293.299.296.296 0 0 1-.293-.299c0-.164.131-.298.293-.298zM9.379 2.982a.295.295 0 0 1-.293-.298c0-.165.131-.298.293-.298a.89.89 0 0 0 .88-.895.89.89 0 0 0-.88-.895.295.295 0 0 1-.293-.298c0-.165.131-.298.293-.298.808 0 1.466.669 1.466 1.491 0 .822-.658 1.491-1.466 1.491zm-1.758 0a.295.295 0 0 1-.293-.298c0-.165.131-.298.293-.298a.889.889 0 0 0 .879-.895.889.889 0 0 0-.879-.895.295.295 0 0 1-.293-.298c0-.165.131-.298.293-.298.808 0 1.465.669 1.465 1.491 0 .822-.657 1.491-1.465 1.491z"/>
</symbol><symbol id="icon-facebook" viewBox="0 0 10 19">
    <title>
        facebook
    </title>
    <path d="M9.766.157v2.946H8.014c-.64 0-1.071.134-1.295.402-.223.268-.335.67-.335 1.205v2.11h3.27l-.435 3.303H6.384v8.471H2.97v-8.47H.123V6.82H2.97V4.387c0-1.384.387-2.457 1.161-3.22C4.904.404 5.934.023 7.222.023c1.093 0 1.941.045 2.544.134z" fill-rule="evenodd"/>
</symbol><symbol id="icon-view" viewBox="0 0 24 14">
    <path fill-rule="evenodd" d="M23.379 10.307c-2.711 2.459-6.272 3.688-9.834 3.688-3.562 0-7.124-1.229-9.835-3.688L-.002 6.941 3.62 3.657c5.423-4.918 14.246-4.918 19.669 0l3.712 3.365-3.622 3.285zm-.735-6.066c-5.067-4.594-13.312-4.594-18.379 0l-2.977 2.7 3.067 2.781c5.067 4.594 13.312 4.594 18.379 0l2.977-2.7-3.067-2.781zm-9.157 8.105c-3.27 0-5.93-2.412-5.93-5.377 0-2.964 2.66-5.377 5.93-5.377 3.27 0 5.929 2.413 5.929 5.377 0 2.965-2.66 5.377-5.929 5.377zm0-9.927c-2.767 0-5.018 2.042-5.018 4.55 0 2.509 2.251 4.55 5.018 4.55s5.017-2.041 5.017-4.55c0-2.508-2.251-4.55-5.017-4.55zm-.456 2.069c-1.258 0-2.281.927-2.281 2.068 0 .228-.204.413-.456.413s-.456-.185-.456-.413c0-1.597 1.432-2.896 3.193-2.896.252 0 .456.186.456.414 0 .228-.205.414-.456.414z"/>
</symbol></svg>