<svg xmlns="http://www.w3.org/2000/svg" width="27" height="14" viewBox="0 0 24 14">
    <path fill-rule="evenodd" fill="#333" d="M23.379 10.307c-2.711 2.459-6.272 3.688-9.834 3.688-3.562 0-7.124-1.229-9.835-3.688L-.002 6.941 3.62 3.657c5.423-4.918 14.246-4.918 19.669 0l3.712 3.365-3.622 3.285zm-.735-6.066c-5.067-4.594-13.312-4.594-18.379 0l-2.977 2.7 3.067 2.781c5.067 4.594 13.312 4.594 18.379 0l2.977-2.7-3.067-2.781zm-9.157 8.105c-3.27 0-5.93-2.412-5.93-5.377 0-2.964 2.66-5.377 5.93-5.377 3.27 0 5.929 2.413 5.929 5.377 0 2.965-2.66 5.377-5.929 5.377zm0-9.927c-2.767 0-5.018 2.042-5.018 4.55 0 2.509 2.251 4.55 5.018 4.55s5.017-2.041 5.017-4.55c0-2.508-2.251-4.55-5.017-4.55zm-.456 2.069c-1.258 0-2.281.927-2.281 2.068 0 .228-.204.413-.456.413s-.456-.185-.456-.413c0-1.597 1.432-2.896 3.193-2.896.252 0 .456.186.456.414 0 .228-.205.414-.456.414z"/>
</svg>